<?xml version="1.0" encoding="utf-8"?>
<svg xmlns="http://www.w3.org/2000/svg" xmlns:xlink="http://www.w3.org/1999/xlink" id="logo"
  data-name="logo" viewBox="0 0 476.13 426.17">
  <defs>
    <linearGradient id="shade_7" x1="283.83" y1="361.5" x2="759.96" y2="361.5"
      gradientUnits="userSpaceOnUse">
      <stop offset="0" stop-color="#63e9aa" />
      <stop offset="1" stop-color="#1aa2e9" />
    </linearGradient>
    <linearGradient id="shade_7-2" x1="397.32" y1="531.27" x2="568.6" y2="531.27"
      xlink:href="#shade_7" />
    <linearGradient id="shade_7-3" x1="481.27" y1="451.67" x2="652.54" y2="451.67"
      xlink:href="#shade_7" />
    <linearGradient id="shade_7-4" x1="628.68" y1="577.17" x2="629.08" y2="577.17"
      xlink:href="#shade_7" />
  </defs>
  <path class="cls-1" style="fill:url(#shade_7)"
    d="M694.51,331.52c-20.46-5.23-26.7-12.91-29.76-33.6-7.31-49.59-48.76-86.27-96.31-90.64-51.07-4.72-96.13,21.94-115.75,69.4-3.84,9.32-6.76,9.95-15.67,5.41-19.5-9.95-54.89-6-70.51,19.79-9.28,15.36-9,26.61-9,26.61s-13.12,3.87-19.18,6.74a95.29,95.29,0,0,0-54.5,85.94c0,45,30.73,82.84,74.72,93.35,0,0,14.1.07,27.54.09-9.76-53.45,10.3-90,11.29-91.77l6.74-11.94,54.82,30-4.49,11.38c-.07.17-7.94,20.69-5.6,44.32a78.14,78.14,0,0,0,4,18.26l27.84.16,46.68.32,30.91.21,13.93.09,27.19.19a104.39,104.39,0,0,0,1.6-29.51C598.68,463,587.32,444.77,567.07,432v17.21L452.81,399l108.94-74.42,1.55,34.55c22.22,6.55,72,26.48,91.55,77.66a170,170,0,0,1,11.52,57.62c.09,3.41,0,6.69-.09,9.86q-.28,6.31-1,12c7.59-.18,13-.41,15.72-.74,43.82-5.18,76.13-44,78.74-85.82C762.59,383.75,737.25,342.45,694.51,331.52ZM371.35,499.43c0,6.11-3.49,5.07-7.29,4.21-38-8.65-71.36-41.81-69.88-79.21.14-3.56-1.14-8,5.23-7.15,4.42.58,8.44-.58,9,6.85,2.78,35.89,22.24,58.15,57.48,65.49C373.5,491.19,371.33,495.2,371.35,499.43ZM571.61,223c-.09.3-.18.58-.28.86,0,.09-.07.21-.11.3a3.12,3.12,0,0,1-.17.46,4.38,4.38,0,0,1-.16.47c-.09.25-.21.5-.32.74a3.81,3.81,0,0,1-.23.5,10.32,10.32,0,0,1-.74,1.35,3.16,3.16,0,0,0-.28.39l-.3.37c-.12.14-.26.28-.37.39a2.2,2.2,0,0,1-.3.31,3.23,3.23,0,0,1-.26.23,2.31,2.31,0,0,1-.23.18,4.5,4.5,0,0,1-.65.42l-.2.14a.64.64,0,0,0-.21.09c-.07,0-.14.07-.23.09s-.14.07-.21.12a9,9,0,0,1-1.51.41,3.18,3.18,0,0,1-.55.07l-.65.07h-1.16a10.08,10.08,0,0,1-1.89-.25,4.81,4.81,0,0,1-.79-.21.83.83,0,0,1-.35-.14c-.09,0-.18-.07-.25-.09a1.57,1.57,0,0,1-.19-.12c-.11,0-.23-.11-.35-.16l-.27-.21a2,2,0,0,1-.26-.21,1,1,0,0,1-.28-.23l-.2-.2a1.57,1.57,0,0,0-.17-.21c-.11-.14-.2-.33-.3-.49a3.22,3.22,0,0,1-.39-.88s0,0,0,0a2.3,2.3,0,0,0-.13-.44c0-.17-.07-.31-.1-.47a8.09,8.09,0,0,1-.14-1,3.89,3.89,0,0,1,0-.49c0-.13,0-.25,0-.39v-.48c0-.84,0-1.72,0-2.6,0-.32,0-.62.05-.92s0-.4,0-.6,0-.19,0-.28a3.94,3.94,0,0,1,.14-.7.21.21,0,0,1,0-.13,2.93,2.93,0,0,1,.13-.51,2.54,2.54,0,0,1,.17-.49,1.92,1.92,0,0,1,.18-.46,4.38,4.38,0,0,1,.67-1,.65.65,0,0,1,.16-.17l.28-.23a3.5,3.5,0,0,1,.35-.23,2.39,2.39,0,0,1,.32-.16,2,2,0,0,1,.37-.12,3.58,3.58,0,0,1,1.25-.11,1,1,0,0,1,.23,0h.07a1.26,1.26,0,0,1,.33,0l.21,0a.9.9,0,0,0,.27.07c.3.07.63.18,1,.3a5.32,5.32,0,0,0,.64.23c.28.07.58.14.88.19a3.25,3.25,0,0,0,.58.14c.26.07.51.11.76.16l1,.21.1,0a3,3,0,0,1,.5.12c.21,0,.4.11.61.16l.71.23c.14.07.28.11.42.18a7,7,0,0,1,.86.44c.11.1.25.19.37.28s.23.21.34.32l.12.12a3.37,3.37,0,0,1,.35.44,2.91,2.91,0,0,1,.2.35c.05.11.12.23.19.37a.18.18,0,0,0,0,.11,2.29,2.29,0,0,0,.09.28c0,.12.07.26.09.39a5.4,5.4,0,0,1,.14.91C571.63,222.11,571.63,222.53,571.61,223Zm23.21,7.11a7,7,0,0,1-.28.71,14.41,14.41,0,0,1-.65,1.42,2.54,2.54,0,0,1-.32.55c0,.05-.05.09-.07.14s-.21.32-.32.49a8.39,8.39,0,0,1-.65.78,3.06,3.06,0,0,1-.32.3,4.1,4.1,0,0,1-.37.33c-.19.14-.4.28-.61.41a6.22,6.22,0,0,1-1.48.63,4,4,0,0,1-.41.11,5,5,0,0,1-.91.14,6.15,6.15,0,0,1-1,.07,11.86,11.86,0,0,1-2.38-.14,2.21,2.21,0,0,1-.47-.07h-.07a3.64,3.64,0,0,1-.39-.11,2,2,0,0,1-.44-.12.84.84,0,0,1-.25-.09,2.25,2.25,0,0,1-.44-.16,4.35,4.35,0,0,1-.77-.42,3.3,3.3,0,0,1-.35-.28.19.19,0,0,1-.11-.09,1.45,1.45,0,0,1-.35-.35,2.15,2.15,0,0,1-.23-.27,3.17,3.17,0,0,1-.32-.49,1.46,1.46,0,0,1-.14-.28,2.44,2.44,0,0,1-.26-.57,5.25,5.25,0,0,1-.18-.65,10,10,0,0,1-.19-1.41v-1.05c0-.57.07-1.2.1-1.8,0-.35.06-.72.13-1.07v0q0-.35.12-.69c0-.16.07-.35.09-.51s.05-.23.07-.33.12-.32.16-.48a5.41,5.41,0,0,1,.24-.63,2.34,2.34,0,0,1,.27-.55,3.46,3.46,0,0,1,.35-.53,3.19,3.19,0,0,1,.37-.44l.16-.17a1,1,0,0,0,.19-.16l.37-.23a2.83,2.83,0,0,1,.58-.28.51.51,0,0,1,.23-.07.45.45,0,0,1,.23-.07,2,2,0,0,1,.39-.09l.21,0a7.3,7.3,0,0,1,1.48,0l1.44.13c.23,0,.48,0,.74.07a15.65,15.65,0,0,1,3.05.58c.14.05.26.07.37.12a5.72,5.72,0,0,1,1.34.65l.19.11c.16.12.32.23.46.35h0c.13.11.27.23.41.37l.28.32a2.34,2.34,0,0,0,.25.3c.07.12.17.26.24.37a2.12,2.12,0,0,0,.11.21,1.42,1.42,0,0,1,.14.23c.05.1.09.21.14.3s.16.42.23.65a7.51,7.51,0,0,1,.28,1.11l.07.42C595.35,228.55,595.1,229.33,594.82,230.1Zm61.92,77.7c0,.47,0,.95,0,1.44,0,.74,0,1.48,0,2.22,0,.3,0,.62,0,.93v.16c0,.32-.07.6-.12.9,0,.14,0,.28-.07.44a6.17,6.17,0,0,1-.16.65,3.89,3.89,0,0,1-.23.58,3.78,3.78,0,0,1-.47.83.56.56,0,0,1-.16.25,3.94,3.94,0,0,1-.44.47h0a3,3,0,0,1-.51.39,1.59,1.59,0,0,1-.3.18l-.32.17a3.19,3.19,0,0,1-.35.14c-.26.09-.51.18-.79.25a8.82,8.82,0,0,1-.92.16,7,7,0,0,1-1.05.09h-.57c-.51,0-1,0-1.51-.06l-.67-.1c-.23,0-.44-.09-.62-.14s-.42-.11-.61-.18l-.53-.21a7.06,7.06,0,0,1-1.8-1.13c-.12-.1-.23-.23-.35-.35a2.26,2.26,0,0,1-.37-.46.58.58,0,0,1-.16-.19,4.07,4.07,0,0,1-.33-.48,2.72,2.72,0,0,1-.2-.37,1.46,1.46,0,0,1-.14-.28,11.23,11.23,0,0,1-.84-2.27c0-.19-.07-.37-.11-.53-.14-.72-.26-1.46-.35-2.18a3.23,3.23,0,0,0-.07-.69c0-.21,0-.44,0-.65,0-.44-.1-.86-.12-1.27,0-.21,0-.42-.07-.63,0-.67-.14-1.32-.21-2,0-.18,0-.37-.09-.55,0-.51-.12-1-.19-1.48-.09-.65-.2-1.32-.34-2s-.23-1.3-.37-1.94-.26-1.28-.42-1.93-.25-1.08-.39-1.62c0-.18-.1-.37-.14-.53-.14-.55-.28-1.08-.44-1.59s-.35-1.25-.56-1.86-.32-1-.51-1.57c0-.05,0-.07,0-.11-.19-.56-.4-1.12-.6-1.67s-.35-1-.54-1.46a8.69,8.69,0,0,0-.41-1c-.19-.44-.35-.9-.56-1.34s-.39-.88-.6-1.34a7.92,7.92,0,0,0-.35-.72c-.21-.53-.46-1-.71-1.53-.47-1-1-1.89-1.46-2.84l-.56-1c-.09-.16-.16-.3-.28-.48s-.3-.51-.43-.77c-.47-.78-.93-1.55-1.42-2.33-.23-.35-.44-.72-.67-1.07-.41-.62-.83-1.27-1.29-1.9-.21-.3-.42-.6-.61-.9-.34-.46-.67-.95-1-1.41-.77-1-1.53-2-2.32-3-.51-.63-1-1.23-1.52-1.85s-.79-.95-1.21-1.41c-.18-.21-.35-.42-.55-.63-.4-.49-.84-1-1.25-1.41-.6-.67-1.21-1.32-1.83-2-.46-.46-.9-.93-1.37-1.41s-.92-.93-1.41-1.39-.95-.93-1.41-1.37c-2.82-2.7-6.48-4.51-9.35-7.17-.16-.14-.32-.3-.46-.44a5.13,5.13,0,0,1-.39-.44,1.92,1.92,0,0,1-.19-.23,2.5,2.5,0,0,1-.18-.23c-.14-.19-.26-.37-.38-.56s-.11-.18-.16-.27l-.14-.28a2,2,0,0,1-.11-.28c0-.09-.07-.19-.12-.28a5.7,5.7,0,0,1-.16-.55c0-.12-.05-.23-.07-.33a1.77,1.77,0,0,1,0-.32,5.51,5.51,0,0,1,0-1.67.32.32,0,0,1,.05-.18,4.52,4.52,0,0,1,.11-.53l.07-.17c0-.18.12-.34.19-.53a14.2,14.2,0,0,1,.72-1.39v0c.16-.21.32-.46.48-.67.26-.37.53-.72.83-1.07.14-.18.31-.34.44-.48l.44-.44c.3-.28.58-.53.88-.77s.4-.27.6-.39a3.76,3.76,0,0,1,.58-.32,4.47,4.47,0,0,1,1.48-.4,3.73,3.73,0,0,1,.47,0,8.33,8.33,0,0,1,4.09,1.39c1,.57,2,1.22,3.08,1.92l1,.71h0c.23.17.46.35.72.51l.81.63c.34.28.74.55,1.11.88s.74.58,1.11.9.74.6,1.11.95c.16.11.32.28.46.39s.32.28.46.42l.84.76.81.74c.69.67,1.41,1.37,2.1,2.09l.77.76.83.88c.28.3.53.58.81.9s.65.69,1,1.07c.65.69,1.29,1.43,1.9,2.17.46.53.9,1.09,1.36,1.64l1.41,1.79c.42.55.86,1.11,1.28,1.68s.94,1.3,1.43,2,.88,1.25,1.32,1.9.79,1.16,1.18,1.73c.16.26.35.51.49.75.5.76,1,1.55,1.48,2.33,1.75,2.83,3.42,5.74,4.93,8.68.46.9.9,1.81,1.34,2.71.21.41.41.85.62,1.27.44,1,.88,1.94,1.3,2.89.23.56.46,1.09.67,1.62.09.16.16.35.23.51s.14.35.21.53l.53,1.37c.35.9.7,1.8,1,2.71l.48,1.36c.51,1.53,1,3,1.37,4.54q.13.51.27,1c.33,1.34.65,2.64.91,4,.14.65.25,1.27.37,1.92,0,.28.09.6.14.88s.07.49.09.72.11.69.14,1c.09.69.14,1.34.21,2,0,.34,0,.67.07,1s0,.56,0,.81,0,.53,0,.76,0,.72,0,1.07S656.74,307.6,656.74,307.8ZM735.1,475.48c-11.08,16.29-29.46,28.65-47.25,30.75-4.59.56-8.94,2.3-11.64-.46a8.2,8.2,0,0,1-1.88-3.7c-.78-3-.37-4.84.77-6.11,1.52-1.74,4.35-2.43,7-3.4,15-5.46,29.13-12.24,38.18-26.57,3.56-5.69,8.91-7.19,14.58-2.75C739.08,466.57,737.32,472.24,735.1,475.48Zm5.09-21.29c-3.84-.07-8.52-1.5-8.65-6.25-.14-4.37,1.82-8.56,7.17-9,4.77.3,7.75,2.36,7.89,7.15C746.74,450.49,745,454.28,740.19,454.19Zm8-21.73c-3.84-.07-8.52-1.5-8.66-6.25-.11-4.35,1.83-8.56,7.18-9,4.79.3,7.77,2.36,7.91,7.18C754.77,428.78,753,432.55,748.2,432.46Z"
    transform="translate(-283.83 -206.74)" />
  <rect class="cls-1" style="fill:#36f" x="270.22" y="280.85" width="16.52" height="16.55" rx="8.26" />
  <rect class="cls-1" style="fill:#36f" x="244.18" y="280.85" width="16.57" height="16.55" rx="8.26" />
  <rect class="cls-1" style="fill:#36f" x="190.15" y="280.85" width="16.55" height="16.55" rx="8.26" />
  <rect class="cls-1" style="fill:#f44d2c" x="217.18" y="280.85" width="16.52" height="16.55"
    rx="8.26" />
  <path class="cls-1" style="fill:url(#shade_7-2)"
    d="M496.64,555v18.31c-91-35.4-55.1-126.14-55.1-126.14l-32.06-17.54S383.16,476.32,408,541.26c22.49,58.83,92,71.66,92,71.66l.9,20,67.76-46.28ZM412.9,501.39h14.15v14.14H412.9Zm2.24,23.07L429,522.25l3,11.38-13.19,4.49ZM464.9,587.9s-29.53-18.92-41-41.59l11.23-5.61s9.35,21.83,35.36,34.3Z"
    transform="translate(-283.83 -206.74)" />
  <path class="cls-1" style="fill:url(#shade_7-3)"
    d="M641.89,441.68c-22.47-58.84-92-71.67-92-71.67l-.9-20-67.76,46.28,72,31.63V409.63c91,35.38,55.09,126.13,55.09,126.13l32.06,17.55S666.7,506.62,641.89,441.68Zm-60.89-29,5.61-12.9s29.53,18.93,41,41.6L616.35,447S607,425.12,581,412.65ZM619.54,454l13.19-4.5,3.65,13.68-13.86,2.19Zm19.07,32.23H624.47V472.13h14.14Z"
    transform="translate(-283.83 -206.74)" />
  <path class="cls-1" style="fill:url(#shade_7-4)"
    d="M628.68,576.73a5.28,5.28,0,0,0,.4.87A4.3,4.3,0,0,1,628.68,576.73Z"
    transform="translate(-283.83 -206.74)" />
  <path class="cls-1" style="fill:url(#shade_7-4)"
    d="M628.68,576.73a5.28,5.28,0,0,0,.4.87A4.3,4.3,0,0,1,628.68,576.73Z"
    transform="translate(-283.83 -206.74)" />
</svg>
