<svg id="图层_1" data-name="图层 1" xmlns="http://www.w3.org/2000/svg" xmlns:xlink="http://www.w3.org/1999/xlink" viewBox="0 0 610 610"><defs><style>.cls-1{fill:url(#未命名的渐变_7);}.cls-2{fill:#36f;}.cls-3{fill:#f44d2c;}.cls-4{fill:url(#未命名的渐变_7-2);}.cls-5{fill:url(#未命名的渐变_7-3);}.cls-6{fill:url(#未命名的渐变_7-4);}</style><linearGradient id="未命名的渐变_7" x1="15" y1="233.95" x2="595" y2="233.95" gradientUnits="userSpaceOnUse"><stop offset="0" stop-color="#63e9aa"/><stop offset="1" stop-color="#1aa2e9"/></linearGradient><linearGradient id="未命名的渐变_7-2" x1="153.25" y1="440.75" x2="361.89" y2="440.75" xlink:href="#未命名的渐变_7"/><linearGradient id="未命名的渐变_7-3" x1="255.51" y1="343.79" x2="464.14" y2="343.79" xlink:href="#未命名的渐变_7"/><linearGradient id="未命名的渐变_7-4" x1="435.08" y1="496.67" x2="435.57" y2="496.67" xlink:href="#未命名的渐变_7"/></defs><path class="cls-1" d="M515.27,197.43c-24.92-6.37-32.53-15.73-36.25-40.93C470.11,96.09,419.63,51.41,361.7,46.08c-62.22-5.75-117.1,26.73-141,84.54-4.68,11.36-8.24,12.12-19.09,6.6-23.76-12.12-66.86-7.36-85.89,24.1-11.3,18.72-11,32.42-11,32.42s-16,4.71-23.36,8.2A116.07,116.07,0,0,0,15,306.64c0,54.79,37.44,100.91,91,113.71,0,0,17.17.08,33.55.11-11.9-65.11,12.54-109.6,13.75-111.8l8.21-14.54,66.78,36.56-5.47,13.87c-.09.2-9.67,25.2-6.82,54a94.88,94.88,0,0,0,4.87,22.24l33.91.2,56.86.39,37.66.26,17,.11,33.12.23A127.56,127.56,0,0,0,401.36,386c-2.82-28.45-16.66-50.63-41.33-66.22v21l-139.19-61.2,132.71-90.65L355.44,231c27.06,8,87.7,32.25,111.51,94.61a207,207,0,0,1,14,70.19c.12,4.14.06,8.14-.11,12-.23,5.13-.65,10-1.21,14.65,9.24-.22,15.87-.5,19.14-.9,53.39-6.31,92.74-53.64,95.93-104.55C598.2,261.05,567.34,210.74,515.27,197.43ZM121.61,402c0,7.44-4.26,6.17-8.88,5.13C66.44,396.56,25.8,356.16,27.6,310.61c.17-4.34-1.38-9.75,6.37-8.71,5.39.7,10.29-.71,11,8.34C48.35,354,72.05,381.08,115,390,124.23,391.94,121.58,396.81,121.61,402Zm244-336.75c-.11.37-.23.71-.34,1-.06.11-.08.25-.14.36a3.19,3.19,0,0,1-.2.57c-.05.17-.11.36-.19.56s-.26.62-.4.9a3.53,3.53,0,0,1-.28.62,12.94,12.94,0,0,1-.9,1.64,3.54,3.54,0,0,0-.34.48l-.37.45c-.14.17-.31.34-.45.48a1.81,1.81,0,0,1-.37.36,2.2,2.2,0,0,1-.31.29,2.28,2.28,0,0,1-.28.22,4.43,4.43,0,0,1-.79.51l-.25.17a1.12,1.12,0,0,0-.25.11,1.6,1.6,0,0,1-.29.11c-.08.06-.17.09-.25.15a11.31,11.31,0,0,1-1.83.5,4.66,4.66,0,0,1-.68.09l-.79.08h-1.41a12.55,12.55,0,0,1-2.31-.31,5,5,0,0,1-1-.25,1.2,1.2,0,0,1-.42-.17l-.31-.11c-.09-.06-.17-.09-.23-.14s-.28-.15-.42-.2l-.34-.26-.31-.25a1.81,1.81,0,0,1-.34-.28l-.25-.26a2,2,0,0,0-.2-.25,3.87,3.87,0,0,1-.36-.59,4,4,0,0,1-.48-1.07s-.06,0-.06-.06a2.06,2.06,0,0,0-.17-.53c0-.2-.08-.37-.11-.57a8,8,0,0,1-.17-1.18,4.07,4.07,0,0,1-.06-.59c0-.17,0-.31,0-.48v-.6c0-1,0-2.08,0-3.15,0-.4,0-.76.05-1.13s0-.48.06-.73,0-.23,0-.34a4.74,4.74,0,0,1,.17-.85.36.36,0,0,1,0-.17c.06-.19.09-.42.17-.62a2.91,2.91,0,0,1,.2-.59,3.27,3.27,0,0,1,.22-.56,5.45,5.45,0,0,1,.82-1.19.61.61,0,0,1,.2-.19,1.74,1.74,0,0,1,.34-.28,3.52,3.52,0,0,1,.42-.29,2.33,2.33,0,0,1,.39-.19,1.76,1.76,0,0,1,.46-.14A4.32,4.32,0,0,1,352,56.2a1,1,0,0,1,.28,0h.08a1.76,1.76,0,0,1,.4.06l.25,0a2.37,2.37,0,0,0,.34.08c.37.09.76.23,1.19.37a6,6,0,0,0,.78.28c.34.08.71.17,1.08.23a2.84,2.84,0,0,0,.7.16,7.72,7.72,0,0,0,.93.2l1.24.26a.26.26,0,0,1,.11,0,6.21,6.21,0,0,1,.62.14c.26.06.48.15.74.2s.56.17.87.28.34.14.51.23a8.48,8.48,0,0,1,1,.53c.14.12.31.23.45.34l.42.4.15.14a4.62,4.62,0,0,1,.42.53c.08.15.17.26.25.43s.14.28.23.45,0,.08.05.14.06.22.12.34.08.31.11.48a7.44,7.44,0,0,1,.17,1.1A13.69,13.69,0,0,1,365.56,65.22Zm28.27,8.66a7.81,7.81,0,0,1-.34.87,16.16,16.16,0,0,1-.79,1.72,3.07,3.07,0,0,1-.39.68s-.06.11-.08.17-.26.39-.4.59a8.42,8.42,0,0,1-.79,1,4.61,4.61,0,0,1-.39.36,3,3,0,0,1-.45.4c-.23.17-.48.34-.74.51a8,8,0,0,1-1.8.76c-.14,0-.34.08-.51.14a7.05,7.05,0,0,1-1.1.17,9.1,9.1,0,0,1-1.21.08,15.5,15.5,0,0,1-2.9-.17,3.26,3.26,0,0,1-.57-.08h-.08c-.17-.06-.34-.09-.48-.14a3.86,3.86,0,0,1-.54-.14,1.51,1.51,0,0,1-.31-.12,3,3,0,0,1-.53-.19,4.62,4.62,0,0,1-.93-.51c-.17-.11-.28-.23-.43-.34a.38.38,0,0,1-.14-.11,2.09,2.09,0,0,1-.42-.42c-.08-.09-.2-.23-.28-.34a6.1,6.1,0,0,1-.4-.59c-.05-.09-.11-.23-.16-.34a2.64,2.64,0,0,1-.31-.71,7.15,7.15,0,0,1-.23-.79,11,11,0,0,1-.23-1.72V73.31c0-.7.09-1.46.12-2.19.05-.43.08-.88.17-1.3v0a6.13,6.13,0,0,1,.14-.84c0-.2.08-.43.11-.62s.06-.29.08-.4.15-.39.2-.59.17-.51.28-.76a3.32,3.32,0,0,1,.34-.68,5.46,5.46,0,0,1,.42-.65,5.82,5.82,0,0,1,.46-.53l.19-.2a1.57,1.57,0,0,0,.23-.2l.45-.28a3.77,3.77,0,0,1,.7-.34.63.63,0,0,1,.29-.08.45.45,0,0,1,.28-.09,3.09,3.09,0,0,1,.48-.11c.08,0,.17,0,.25-.06a10.9,10.9,0,0,1,1.81,0c.56.06,1.12.12,1.74.17.28,0,.59,0,.9.09a18.75,18.75,0,0,1,3.73.7c.16.06.31.09.45.14a7.22,7.22,0,0,1,1.63.79l.23.14.56.43h0c.17.14.34.28.51.45s.22.25.34.39a2.53,2.53,0,0,0,.31.37c.08.14.19.31.28.45s.08.17.14.25a2.19,2.19,0,0,1,.17.29c.05.11.11.25.17.36.08.26.19.51.28.79a10.24,10.24,0,0,1,.34,1.35l.08.51C394.48,72,394.17,73,393.83,73.88Zm75.44,94.66c0,.56,0,1.15,0,1.75,0,.9,0,1.8,0,2.7,0,.37,0,.76-.06,1.13v.2c0,.39-.08.73-.14,1.1,0,.16-.06.33-.08.53s-.12.54-.2.79a5.25,5.25,0,0,1-.28.71,4.37,4.37,0,0,1-.57,1,.67.67,0,0,1-.19.31,4.76,4.76,0,0,1-.54.56h0a3.4,3.4,0,0,1-.62.48,2.41,2.41,0,0,1-.36.23c-.15.08-.26.14-.4.2a2.41,2.41,0,0,1-.42.16,9,9,0,0,1-1,.32c-.37.08-.73.14-1.13.19A8.3,8.3,0,0,1,462,181h-.7a18.23,18.23,0,0,1-1.83-.09l-.82-.11c-.28-.06-.54-.11-.76-.17s-.51-.14-.73-.23l-.65-.25a8.76,8.76,0,0,1-2.2-1.38,5.54,5.54,0,0,1-.42-.42,3.11,3.11,0,0,1-.46-.57.67.67,0,0,1-.19-.22,4.17,4.17,0,0,1-.4-.6,3.37,3.37,0,0,1-.25-.45,1.54,1.54,0,0,1-.17-.34,13.82,13.82,0,0,1-1-2.76c-.05-.22-.08-.45-.14-.65-.17-.87-.31-1.77-.42-2.65a4.78,4.78,0,0,0-.08-.84,6.83,6.83,0,0,0-.06-.79c-.06-.54-.11-1-.14-1.55l-.09-.76c0-.82-.16-1.61-.25-2.43-.06-.22-.06-.45-.11-.67-.06-.62-.14-1.22-.23-1.81-.11-.79-.25-1.6-.42-2.39s-.28-1.58-.45-2.37-.31-1.55-.51-2.34-.31-1.33-.48-2a3.85,3.85,0,0,0-.17-.65c-.17-.68-.34-1.33-.53-1.95s-.43-1.52-.68-2.25-.39-1.27-.62-1.92c0-.06,0-.08-.06-.14-.22-.68-.48-1.35-.73-2s-.42-1.18-.65-1.78c-.14-.42-.31-.81-.5-1.24s-.43-1.1-.68-1.63-.48-1.07-.73-1.64c-.12-.28-.29-.59-.43-.87a17.63,17.63,0,0,0-.87-1.86c-.56-1.18-1.16-2.31-1.78-3.47l-.67-1.21c-.12-.2-.2-.37-.34-.59s-.37-.62-.54-.93c-.56-1-1.12-1.89-1.72-2.85-.28-.42-.53-.87-.81-1.3-.51-.76-1-1.55-1.58-2.31-.26-.36-.51-.73-.74-1.1-.42-.56-.81-1.15-1.24-1.72-.93-1.24-1.86-2.48-2.81-3.69-.63-.76-1.25-1.49-1.87-2.25-.47-.6-.95-1.16-1.46-1.72-.23-.26-.42-.51-.68-.76-.48-.6-1-1.16-1.52-1.72-.73-.82-1.47-1.61-2.23-2.43-.56-.56-1.1-1.13-1.66-1.72s-1.13-1.13-1.72-1.69-1.16-1.13-1.72-1.66c-3.44-3.3-7.89-5.5-11.39-8.74-.19-.17-.39-.37-.56-.54s-.34-.36-.48-.53l-.23-.28c-.08-.12-.17-.2-.22-.29s-.31-.45-.45-.67a2.49,2.49,0,0,1-.2-.34l-.17-.34a1.43,1.43,0,0,1-.14-.34c-.06-.11-.08-.22-.14-.34a5.67,5.67,0,0,1-.2-.67c0-.14,0-.28-.08-.4a1.76,1.76,0,0,1-.06-.39,6.29,6.29,0,0,1,.06-2,.71.71,0,0,1,.05-.23c0-.22.09-.42.14-.65a1.14,1.14,0,0,1,.09-.19c.06-.23.14-.43.22-.65a17.06,17.06,0,0,1,.88-1.69v0c.2-.25.39-.56.59-.82a13.74,13.74,0,0,1,1-1.29,4.53,4.53,0,0,1,.53-.6l.54-.53a12.93,12.93,0,0,1,1.07-.93,6.13,6.13,0,0,1,.73-.48,5.09,5.09,0,0,1,.71-.4,5.29,5.29,0,0,1,1.8-.48,5.54,5.54,0,0,1,.56,0,10.2,10.2,0,0,1,5,1.69c1.24.7,2.48,1.49,3.75,2.34l1.21.87h0c.28.2.57.43.88.62s.64.51,1,.76.9.68,1.36,1.08.9.7,1.35,1.1.9.73,1.35,1.15c.2.14.4.34.57.48s.39.34.56.51l1,.93,1,.9c.85.82,1.72,1.66,2.57,2.54l.93.93,1,1.07c.34.36.65.7,1,1.1s.79.84,1.15,1.29c.79.85,1.58,1.75,2.31,2.65.57.65,1.1,1.33,1.67,2l1.72,2.17c.5.67,1,1.35,1.55,2s1.15,1.58,1.75,2.4,1.07,1.52,1.6,2.31,1,1.41,1.44,2.12c.2.31.42.62.59.9.62.93,1.21,1.89,1.81,2.84,2.14,3.44,4.17,7,6,10.58.56,1.09,1.1,2.19,1.64,3.29.25.51.5,1,.76,1.55.53,1.19,1.07,2.37,1.58,3.53.28.67.56,1.32.81,2a4.24,4.24,0,0,1,.28.62l.26.65c.22.56.42,1.1.65,1.66.42,1.1.84,2.2,1.21,3.3l.59,1.66c.62,1.86,1.18,3.7,1.66,5.53l.34,1.21c.4,1.64.79,3.21,1.1,4.82.17.79.31,1.55.45,2.34.06.34.12.73.17,1.07s.09.59.11.88.15.84.17,1.24c.12.84.17,1.63.26,2.42,0,.42,0,.82.08,1.21s.06.68.06,1,0,.65,0,.93c0,.45,0,.87,0,1.3C469.29,168.06,469.27,168.28,469.27,168.54Zm95.44,204.25c-13.5,19.85-35.88,34.9-57.56,37.47-5.58.67-10.88,2.79-14.18-.57a10,10,0,0,1-2.28-4.51c-1-3.6-.45-5.89.93-7.44,1.86-2.11,5.3-3,8.54-4.14,18.32-6.65,35.49-14.91,46.51-32.36,4.34-6.94,10.86-8.77,17.76-3.36C569.56,361.94,567.42,368.85,564.71,372.79Zm6.21-25.93c-4.68-.08-10.38-1.83-10.55-7.61-.17-5.33,2.23-10.43,8.74-11,5.81.37,9.45,2.88,9.61,8.72C578.89,342.35,576.81,347,570.92,346.86Zm9.75-26.47c-4.68-.08-10.37-1.83-10.54-7.61-.14-5.3,2.22-10.43,8.74-11,5.83.36,9.47,2.87,9.64,8.73C588.67,315.91,586.56,320.5,580.67,320.39Z"/><rect class="cls-2" x="344.17" y="387.55" width="20.13" height="20.16" rx="10.06"/><rect class="cls-2" x="312.45" y="387.55" width="20.18" height="20.16" rx="10.06"/><rect class="cls-2" x="246.63" y="387.55" width="20.16" height="20.16" rx="10.06"/><rect class="cls-3" x="279.56" y="387.55" width="20.13" height="20.16" rx="10.06"/><path class="cls-4" d="M274.23,469.66V492c-110.86-43.12-67.11-153.66-67.11-153.66l-39.07-21.37s-32.05,56.87-1.84,136c27.39,71.67,112,87.3,112,87.3l1.1,24.35,82.54-56.38Zm-102-65.3h17.23v17.22H172.23Zm2.72,28.1,16.88-2.69,3.63,13.86-16.07,5.47Zm60.62,77.28s-36-23-49.91-50.67l13.69-6.83s11.38,26.6,43.06,41.79Z"/><path class="cls-5" d="M451.17,331.62c-27.37-71.67-112-87.3-112-87.3L338.05,220l-82.54,56.38,87.66,38.53V292.57C454,335.68,410.28,446.23,410.28,446.23l39.05,21.37S481.39,410.73,451.17,331.62ZM377,296.26l6.85-15.72s36,23.07,49.91,50.68l-13.69,6.84S408.67,311.45,377,296.26Zm47,50.4L440,341.19l4.44,16.65-16.88,2.67Zm23.23,39.27H430V368.71h17.23Z"/><path class="cls-6" d="M435.08,496.14a6,6,0,0,0,.49,1.06A5.1,5.1,0,0,1,435.08,496.14Z"/><path class="cls-6" d="M435.08,496.14a6,6,0,0,0,.49,1.06A5.1,5.1,0,0,1,435.08,496.14Z"/></svg>
